HIERARCHY
ROOT pelvis
{
  OFFSET 0 100 0
  CHANNELS 6 Xposition Yposition Zposition Zrotation Xrotation Yrotation
  JOINT pelvis_right_femur
  {
    OFFSET -10.78128 -3.44521 -0.5502486
    CHANNELS 3 Zrotation Xrotation Yrotation
    JOINT right_femur_tibia
    {
      OFFSET -0.8047443 -44.0398 -0.1307829
      CHANNELS 3 Zrotation Xrotation Yrotation
      JOINT right_tibia_foot
      {
        OFFSET 3.006224 -47.83518 -5
        CHANNELS 3 Zrotation Xrotation Yrotation
        End Site
        {
          OFFSET 0 -5 15
        }
      }
    }
  }
  JOINT pelvis_left_femur
  {
    OFFSET 10.78128 -3.44521 -0.5502486
    CHANNELS 3 Zrotation Xrotation Yrotation
    JOINT left_femur_tibia
    {
      OFFSET 0.8047443 -44.0398 -0.1307829
      CHANNELS 3 Zrotation Xrotation Yrotation
      JOINT left_tibia_foot
      {
        OFFSET -4.370144 -48.10324 -4.275266
        CHANNELS 3 Zrotation Xrotation Yrotation
        End Site
        {
          OFFSET 0 -5 15
        }
      }
    }
  }
  JOINT pelvis_spine1
  {
    OFFSET 0 6.468898 -3.129235
    CHANNELS 3 Zrotation Xrotation Yrotation
    JOINT spine1
    {
      OFFSET 0 23.15396 4.99043
      CHANNELS 3 Zrotation Xrotation Yrotation
      JOINT spine2
      {
        OFFSET 0 20.79997 -5.064912
        CHANNELS 3 Zrotation Xrotation Yrotation
        JOINT neck
        {
          OFFSET 0 14.38658 9.616178
          CHANNELS 3 Zrotation Xrotation Yrotation
          End Site
          {
            OFFSET 0 20 0
          }
        }
      }
      JOINT right_manubrium
      {
        OFFSET -5.722621 16.35077 3.967754
        CHANNELS 3 Zrotation Xrotation Yrotation
        JOINT right_clavicle
        {
          OFFSET -13.16364 1.694482 -4.693211
          CHANNELS 3 Zrotation Xrotation Yrotation
          JOINT right_humerus
          {
            OFFSET -28.5034 -0.3100689 -2.792744
            CHANNELS 3 Zrotation Xrotation Yrotation
            JOINT right_radius
            {
              OFFSET -25.15693 0.02248979 -1.271978
              CHANNELS 3 Zrotation Xrotation Yrotation
              End Site
              {
                OFFSET -15 0 0
              }
            }
          }
        }
      }
      JOINT left_manubrium
      {
        OFFSET 5.722621 16.35077 3.967754
        CHANNELS 3 Zrotation Xrotation Yrotation
        JOINT left_clavicle
        {
          OFFSET 13.16364 1.694482 -4.693211
          CHANNELS 3 Zrotation Xrotation Yrotation
          JOINT left_humerus
          {
            OFFSET 29.39168 -1.063119 -2.237045
            CHANNELS 3 Zrotation Xrotation Yrotation
            JOINT left_radius
            {
              OFFSET 24.59957 -0.9528479 0.9047498
              CHANNELS 3 Zrotation Xrotation Yrotation
              End Site
              {
                OFFSET 15 -0 -0
              }
            }
          }
        }
      }
    }
  }
}
MOTION
Frames: 19
Frame Time: 0.0416666666667
87.03141 107.3304 3045.253 0.2225348 -7.964155 3.551954 5.944432 -4.17736 3.162708 -0 15.94443 -0 -6.864203 -6.708919 -4.969522 -2.221417 -1.688223 -6.74552 -0 60.37969 -0 -6.573089 -5.828203 15.23653 1.114512 -0.855442 7.849365 -0.6483022 13.8218 -6.333898 1.807499 18.93582 1.764321 -1.882073 -24.27524 5.983858 -9.901092 -30.55079 8.243063 99.71275 22.46093 -13.79696 -0 0 22.0125 -17.97313 8.487974 11.94437 0.2503177 -21.81159 -6.277743 -86.41551 13.72562 30.52327 0 0 -26.97431 -0.1099717 4.398879 16.40512
87.20091 108.2034 3050.931 0.7460679 -8.061123 2.752719 5.198042 1.039561 3.223757 -0 14.08244 -0 -6.533273 -9.001076 -4.135748 -1.724716 -8.769073 -6.29957 -0 57.67865 -0 -6.50293 -6.273293 16.20386 1.175592 -0.9274897 8.206677 -0.8421044 14.09206 -6.009277 1.954886 18.4286 1.204483 -2.211618 -24.10739 5.790184 -9.761065 -31.7863 8.123622 98.29263 22.79027 -11.5271 -0 0 25.21848 -18.37065 9.95292 12.78211 0.0372551 -20.59379 -5.866386 -87.73513 13.42654 33.31086 0 0 -24.04017 -1.005535 4.296932 17.08661
87.41949 108.4669 3056.379 0.9888233 -7.858263 2.053393 4.733563 5.757957 3.17969 -0 12.20505 -0 -6.093786 -10.9816 -3.301987 -0.7316331 -15.03357 -5.588244 -0 50.35247 -0 -6.303459 -6.871745 17.3514 1.194445 -1.092271 8.48853 -1.018188 14.34 -5.66068 2.11275 17.97998 0.7015833 -2.470825 -23.82542 5.632549 -9.447171 -32.89213 8.099656 96.65809 22.9798 -9.204608 -0 0 28.30847 -18.96716 11.54443 13.75003 -0.1167849 -19.4082 -5.460739 -89.12054 13.14105 35.89485 0 0 -20.90849 -1.782583 4.503246 17.54694
87.71832 108.0896 3061.765 0.8377636 -7.337835 1.395385 4.585273 9.839776 2.991266 -0 10.75182 -0 -5.587303 -12.99204 -2.4723 0.6036192 -20.1366 -4.752449 -0 40.16237 -0 -6.003049 -7.14543 18.52011 1.162285 -1.352099 8.660495 -1.15665 14.53684 -5.283671 2.263198 17.66553 0.3282518 -2.61866 -23.48534 5.541899 -8.95123 -33.78832 8.196058 94.87372 22.89617 -6.955954 -0 0 31.03069 -19.81194 13.11332 14.87204 -0.1757933 -18.31993 -5.081659 -90.63418 12.96765 38.17188 0 0 -17.53123 -2.3608 5.058851 17.7431
88.13955 107.1965 3067.267 0.4240341 -6.508609 0.7358061 4.514375 13.14984 2.686563 -0 10.13661 -0 -5.010376 -15.05505 -1.62809 1.837485 -23.86986 -4.019168 -0 29.64844 -0 -5.596646 -7.005873 19.38519 1.083137 -1.679853 8.720281 -1.248957 14.66504 -4.891489 2.385772 17.52289 0.1301351 -2.634771 -23.13996 5.52444 -8.320199 -34.42941 8.405304 93.09018 22.51408 -4.943294 -0 0 33.18552 -20.86339 14.4787 16.0946 -0.1358185 -17.40216 -4.760745 -92.23838 12.92813 40.05755 0 0 -14.05105 -2.698984 5.897598 17.68699
88.72221 106.0177 3073.054 0.01413707 -5.557349 0.06978509 4.205208 15.6781 2.42237 -0 10.82491 -0 -4.384328 -16.57461 -0.8116782 2.478781 -26.1091 -3.668364 -0 21.19503 -0 -5.083237 -6.634181 19.7936 0.976751 -2.026331 8.687379 -1.294797 14.72868 -4.518658 2.466072 17.54978 0.1103471 -2.527602 -22.82147 5.564255 -7.63393 -34.79293 8.6952 91.49897 21.90813 -3.344217 -0 0 34.63661 -21.98857 15.504 17.28202 -0.01564658 -16.72817 -4.533271 -93.79292 12.99258 41.46634 0 0 -10.78156 -2.786185 6.892504 17.41948
89.48623 104.8153 3079.247 -0.1336595 -4.801344 -0.5760045 3.440288 17.57028 2.352478 -0 13.19242 -0 -3.800954 -16.62662 -0.1290579 2.204444 -26.87251 -3.952404 -0 16.16025 -0 -4.504085 -6.314344 19.8779 0.8720567 -2.342663 8.586916 -1.297432 14.75278 -4.207239 2.500752 17.71705 0.2353366 -2.329656 -22.54511 5.636882 -6.970611 -34.87934 9.026666 90.25558 21.18576 -2.295147 -0 0 35.32954 -23.0295 16.14987 18.28167 0.1605264 -16.34775 -4.42414 -95.13508 13.12591 42.33719 0 0 -8.055372 -2.630823 7.921792 16.98547
90.41882 103.8373 3085.881 0.1182575 -4.517704 -1.13234 2.209216 18.94345 2.496298 -0 17.46759 -0 -3.370315 -14.49498 0.2999216 0.9870705 -26.28216 -4.952026 -0 14.59583 -0 -3.936994 -6.292636 19.88391 0.7947984 -2.599651 8.438384 -1.260966 14.77055 -3.989384 2.496126 17.98603 0.4561411 -2.080861 -22.31371 5.721228 -6.378933 -34.70974 9.370296 89.42976 20.42925 -1.850196 -0 0 35.29442 -23.8758 16.46756 18.99389 0.374161 -16.27288 -4.440615 -96.15397 13.30872 42.65728 0 0 -6.087207 -2.252414 8.912094 16.41774
91.47163 103.2992 3092.877 0.7348519 -4.80719 -1.470278 0.7337119 19.63532 2.724939 -0 23.75328 -0 -3.129325 -10.09973 0.3898547 -0.8935055 -24.44087 -6.478322 -0 15.56625 -0 -3.448648 -6.695127 19.93574 0.7602501 -2.790761 8.25394 -1.18918 14.81066 -3.881769 2.462947 18.31918 0.7266302 -1.814798 -22.11932 5.802782 -5.874377 -34.31736 9.711241 89.01365 19.68306 -1.989145 -0 0 34.6203 -24.48351 16.55272 19.3872 0.612472 -16.48559 -4.576321 -96.80197 13.53001 42.45451 0 0 -4.955476 -1.676523 9.837605 15.73506
92.57369 103.3603 3100.038 1.516046 -5.556661 -1.433749 -0.5888752 19.11402 2.840107 -0 31.88604 -0 -3.027204 -4.185005 0.09960177 -2.938375 -21.39343 -8.106532 -0 17.68492 -0 -3.039233 -7.499608 19.95594 0.7741078 -2.92288 8.042842 -1.085511 14.89205 -3.890763 2.411759 18.68167 1.009964 -1.556532 -21.95132 5.871902 -5.457781 -33.74221 10.04201 88.96526 18.96963 -2.653565 -0 0 33.4214 -24.84865 16.49832 19.47124 0.863294 -16.95465 -4.818233 -97.06557 13.77557 41.77624 0 0 -4.666822 -0.9352736 10.6888 14.95444
93.65583 104.066 3107.09 2.161034 -6.496958 -0.9345615 -1.350856 16.68279 2.707525 -0 41.06399 -0 -3.013702 1.797278 -0.5668015 -4.607045 -17.23341 -9.363524 -0 19.59646 -0 -2.620358 -8.554121 19.78223 0.8362071 -3.005778 7.816774 -0.9543341 15.02271 -4.017757 2.351055 19.03898 1.277444 -1.327512 -21.80812 5.922733 -5.1376 -33.03311 10.35209 89.24696 18.3083 -3.772506 -0 0 31.81837 -24.97561 16.36599 19.2688 1.110013 -17.64396 -5.149173 -96.93885 14.02369 40.67844 0 0 -5.218045 -0.07491797 11.44005 14.11079
94.67501 105.2891 3113.768 2.399257 -7.335456 -0.03663608 -1.377679 11.94668 2.373852 -0 49.56889 -0 -3.135575 6.21558 -1.517154 -5.550188 -12.24019 -9.99116 -0 20.35898 -0 -2.069045 -9.668989 19.34807 0.9424328 -3.046145 7.59259 -0.8025326 15.19831 -4.259145 2.287214 19.35691 1.507531 -1.148574 -21.70175 5.954005 -4.939322 -32.2496 10.62335 89.83945 17.72632 -5.266623 -0 0 29.93259 -24.86271 16.17527 18.80482 1.329074 -18.51179 -5.546992 -96.41718 14.24622 39.22731 0 0 -6.613084 0.8367294 12.03779 13.27053
95.62254 106.7285 3119.917 2.15702 -7.889513 1.064829 -0.8434695 5.25369 2.000911 -0 55.09809 -0 -3.495552 8.065952 -2.549492 -5.757265 -6.894398 -10.07221 -0 19.66562 -0 -1.363103 -10.77001 18.72992 1.083748 -3.045996 7.389538 -0.6397638 15.39973 -4.602952 2.224028 19.60885 1.690374 -1.034759 -21.65036 5.970072 -4.896663 -31.45107 10.83407 90.73469 17.261 -7.047817 -0 0 27.87209 -24.50515 15.90246 18.10577 1.493632 -19.51187 -5.986053 -95.50398 14.41289 37.49393 0 0 -8.843635 1.717867 12.41568 12.52194
96.5083 107.9992 3125.544 1.63031 -8.117241 2.158048 -0.1329386 -2.32306 1.633344 -0 55.78751 -0 -4.057056 7.473517 -3.451773 -5.500392 -1.735382 -9.888183 -0 17.79819 -0 -0.6790535 -11.97807 18.01938 1.243222 -3.002962 7.2214 -0.4774703 15.59085 -5.026316 2.161347 19.78669 1.835381 -0.9843893 -21.6651 5.980378 -5.032999 -30.67471 10.96608 91.91978 16.95729 -9.026442 -0 0 25.70719 -23.90743 15.48474 17.20016 1.583738 -20.59896 -6.441344 -94.21816 14.49793 35.53381 0 0 -11.85962 2.496475 12.52258 11.94182
97.33646 108.7656 3130.796 1.156404 -8.044111 3.112267 0.3827035 -9.539312 1.112464 -0 51.20884 -0 -4.569881 5.439744 -4.11476 -5.13879 2.841321 -9.672376 -0 15.36453 -0 -0.2892203 -13.49253 17.21857 1.39378 -2.911149 7.090298 -0.3280889 15.7189 -5.495285 2.094965 19.90427 1.971613 -0.9744489 -21.7451 5.997277 -5.349758 -29.92561 11.00685 93.362 16.86523 -11.1132 -0 0 23.46921 -23.09633 14.83391 16.12304 1.5949 -21.72748 -6.888447 -92.6019 14.48631 33.37935 0 0 -15.54065 3.126234 12.33721 11.56976
98.0997 108.8433 3135.893 0.9852145 -7.691122 3.894983 0.501116 -15.57084 0.2551103 -0 42.52086 -0 -4.779623 3.146795 -4.527244 -4.937385 6.697755 -9.496236 -0 13.03014 -0 -0.3347315 -15.37006 16.28947 1.501271 -2.763631 6.988364 -0.204139 15.7235 -5.967632 2.019074 19.98747 2.134834 -0.9703533 -21.88386 6.03245 -5.82783 -29.19427 10.94705 94.99975 17.03271 -13.20787 -0 0 21.19005 -22.12757 13.86893 14.92739 1.537342 -22.84021 -7.298613 -90.73268 14.37704 31.06994 0 0 -19.67243 3.580269 11.86358 11.41219
98.79093 108.2298 3141.067 1.152938 -7.072247 4.536788 0.2550286 -20.16649 -0.9352801 -0 31.80891 -0 -4.650137 1.422915 -4.73564 -4.986683 9.911882 -9.314456 -0 11.39133 -0 -0.7430486 -17.41148 15.23994 1.534969 -2.557959 6.904979 -0.1154625 15.55804 -6.400406 1.929824 20.05861 2.347943 -0.9432003 -22.07591 6.091909 -6.431851 -28.48401 10.78222 96.74013 17.48542 -15.19352 -0 0 18.94826 -21.08301 12.56398 13.69159 1.429673 -23.86406 -7.638475 -88.73143 14.18394 28.69402 0 0 -23.94645 3.84248 11.1267 11.45566
99.40878 107.0793 3146.518 1.513754 -6.237285 5.089972 -0.1183921 -23.41911 -2.223571 -0 21.2937 -0 -4.367638 0.5825106 -4.829161 -5.219336 12.64668 -9.055069 -0 10.97464 -0 -1.351483 -19.21989 14.13367 1.481186 -2.302582 6.833156 -0.06559834 15.2151 -6.759783 1.828176 20.12657 2.607347 -0.8824724 -22.31621 6.172219 -7.110605 -27.82428 10.52052 98.46225 18.19841 -16.94854 -0 0 16.88016 -20.059 10.98853 12.51294 1.294359 -24.72233 -7.878576 -86.75673 13.93699 26.40336 0 0 -27.99591 3.913304 10.18055 11.66817
99.94952 105.6553 3152.391 1.840438 -5.311618 5.599026 -0.2733386 -25.47843 -3.234 -0 12.85247 -0 -4.197555 0.5162532 -4.917269 -5.47164 15.02027 -8.679356 -0 12.27049 -0 -2.05391 -20.32405 13.05994 1.352084 -2.018719 6.772407 -0.05049859 14.73974 -7.026989 1.721379 20.18698 2.881873 -0.7995236 -22.59651 6.261452 -7.799865 -27.26596 10.18834 100.0281 19.08037 -18.36469 -0 0 15.15181 -19.14786 9.311574 11.48978 1.154967 -25.35296 -8.003201 -84.98578 13.68401 24.39343 0 0 -31.4557 3.817608 9.115495 11.99978
